# xmcd
#
# Track frame offsets:
#	150
#	14812
#	29945
#	46037
#	61677
#	76160
#	93595
#	107422
#	123735
#	139797
#	152675
#	168757
#	186155
#	202495
#	219770
#	236920
#	257285
#	274227
#	289505
#	304432
#
# Disc length: 4259 seconds
#
# Revision: 6
# Processed by: cddbd v1.5.2PL0 Copyright (c) Steve Scherf et al.
# Submitted via: audiograbber 1.83.01
#
DISCID=2110a114
DTITLE=Just The Best - Just The Best 1/2001  CD 2
DYEAR=2001
DGENRE=Compilation
TTITLE0=Walter - Ich geh' nicht ohne Dich
TTITLE1=Britny Spears - Stronger
TTITLE2=Jeanette - Go Back
TTITLE3=Melanie Thornton - Love How You Love Me
TTITLE4=Rednex - Hold Me For A While
TTITLE5=Die 3. Generation - Ich will, dass du mich liebst
TTITLE6=Paul van Dyk - We Are Alive
TTITLE7=Guano Apes - Dödel Up
TTITLE8=Balloon - Monstersound
TTITLE9=Mauro Picotto - Proximus
TTITLE10=Blank and Jones - Beyond Time
TTITLE11=HIM - Gone With The Sin
TTITLE12=Commercial Breakup - Walking Back Home
TTITLE13=Reamonn - Waiting There For You
TTITLE14=Prezident Brown - Rough Road (DJ Tomekk Mix feat. Bintia)
TTITLE15=Melanie C. - If That Were Me
TTITLE16=Amadeus Barthoni - Emporio
TTITLE17=Babyboy - Baby Superstar
TTITLE18=Zlatko - Pack die Koffer
TTITLE19=Jürgen - Herz geballt
EXTD=
EXTT0=
EXTT1=
EXTT2=
EXTT3=
EXTT4=
EXTT5=
EXTT6=
EXTT7=
EXTT8=
EXTT9=
EXTT10=
EXTT11=
EXTT12=
EXTT13=
EXTT14=
EXTT15=
EXTT16=
EXTT17=
EXTT18=
EXTT19=
PLAYORDER=
